<?xml version="1.0" encoding="utf-8"?>
<!-- Generator: Adobe Illustrator 16.0.0, SVG Export Plug-In . SVG Version: 6.00 Build 0)  -->
<!DOCTYPE svg PUBLIC "-//W3C//DTD SVG 1.1//EN" "http://www.w3.org/Graphics/SVG/1.1/DTD/svg11.dtd">
<svg version="1.1" id="Layer_1" xmlns="http://www.w3.org/2000/svg" xmlns:xlink="http://www.w3.org/1999/xlink" x="0px" y="0px"
	 width="720px" height="720px" viewBox="0 0 720 720" enable-background="new 0 0 720 720" xml:space="preserve">
<g>
	<g id="XMLID_1_">
		<g>
			<path d="M563.7,402.67c3.43,16.45-54.3,87.36-120.63,144.71c-49.7,42.98-104.1,78.29-141.17,77.19l-2.76-44.681
				C365.98,571.96,453.9,521.84,563.7,402.67z"/>
			<path fill="#3FA9F5" d="M563.7,402.67l-137.641,24.1c-0.09-1.149-0.149-2.27-0.199-3.38c-0.511-12.27,1.529-22.13,9.05-25.35
				c12.45-5.34,48.87-15.84,60.31-33.34L563.7,402.67z"/>
			<path fill="#3FA9F5" d="M530.59,636.33c-12.07,16.2-25.46,33.9-39.97,53.02c4.41-16.42,6.29-28.189,5.88-36.409
				C508.16,648.02,519.55,642.55,530.59,636.33z"/>
			<path fill="#3FA9F5" d="M439.9,16.99c38.119,29.76,68.47,55.47,87.29,74.54c-18.171-9.83-36.9-17.86-56.101-24.18
				C477.49,60.67,469.63,45.69,439.9,16.99z"/>
			<path d="M366.13,80.34c320.96,172.35,176.4,190.8-87.3,164.35v-0.01l11.96-22.49c63.65,13.63,221.229,7.37,224.89-11.72
				c4.431-23.34-86.97-77.44-138.75-105.19c-7-3.74-14.399-7.4-18.95-9.59L366.13,80.34z"/>
			<path d="M492.44,337.97c8.17,10.26,7.869,19.09,2.779,26.73l-20.52-11.39c-3.05-12.06-41.12-25.41-54.95-30.51l-51.07-28.27
				c8.561,1.34,16.891,3.68,23.801,5.32C421.14,306.9,475.53,315.25,492.44,337.97z"/>
			<path d="M495.22,364.7c-11.439,17.5-47.859,28-60.31,33.34c-7.521,3.22-9.561,13.08-9.05,25.35c0.05,1.11,0.109,2.24,0.199,3.38
				l-24.02,4.15c-3.82-18.65-6.521-34.25-15.76-33.43c-9.44,0.81-16.221,18.04-23.41,40.18l-0.41-0.24l-13.94-8.26
				c10.94-19.439,16.74-49.37,37.98-51.9c11.4-1.38,16.34,11.851,32.67,8.58c8.12-1.689,52.37-18.08,55.59-29.62
				c0.24-0.99,0.29-1.99-0.06-2.92L495.22,364.7z"/>
			<path fill="#3FA9F5" d="M376.93,105.28c51.78,27.75,143.181,81.85,138.75,105.19c-3.66,19.09-161.24,25.35-224.89,11.72
				l67.19-126.5C362.53,97.88,369.93,101.54,376.93,105.28z"/>
			<path fill="#3FA9F5" d="M419.75,322.8c13.83,5.1,51.9,18.45,54.95,30.51L419.75,322.8z"/>
			<path d="M426.78,485.31c0.56,0.4,1.13,0.78,1.71,1.141C427.91,486.09,427.34,485.71,426.78,485.31z"/>
			<path d="M402.04,430.92l24.02-4.15c1.62,22.301,9.94,50.891,8.07,62.48c-2.01-0.77-3.89-1.71-5.64-2.8
				c-0.58-0.36-1.15-0.74-1.71-1.141c-8.36-5.93-13.73-15.409-17.521-26c-0.5-1.409-0.979-2.84-1.43-4.279
				c-0.01-0.011,0-0.011,0-0.011c-0.45-1.439-0.88-2.899-1.29-4.359c-0.21-0.74-0.41-1.48-0.6-2.21
				c-0.381-1.47-0.75-2.95-1.101-4.42c-0.01,0,0-0.011,0-0.011c-0.52-2.21-1.01-4.42-1.479-6.609c-0.011,0,0-0.01,0-0.01
				C402.9,435.21,402.46,433.05,402.04,430.92z"/>
			<path d="M426.06,426.77c-0.09-1.14-0.149-2.27-0.199-3.38C425.91,424.5,425.97,425.62,426.06,426.77z"/>
			<path fill="#3FA9F5" d="M474.7,353.31c0.35,0.93,0.3,1.93,0.06,2.92c-3.22,11.54-47.47,27.93-55.59,29.62
				c-16.33,3.271-21.27-9.96-32.67-8.58c-21.24,2.53-27.04,32.461-37.98,51.9v0.01l-6.61-4c5.46-44.08-1.98-111.91,7.26-114.74
				c10.71-3.4,57.83,7.21,66.39,10.83c0.21,0.1,0.46,0.21,0.74,0.32c0.29,0.11,0.61,0.23,0.96,0.36c0.17,0.07,0.36,0.13,0.55,0.2
				c0.381,0.13,0.801,0.27,1.25,0.42c0.221,0.08,0.45,0.15,0.69,0.23L474.7,353.31z"/>
			<path d="M417.81,322.15c0.381,0.13,0.801,0.27,1.25,0.42C418.61,322.42,418.19,322.28,417.81,322.15z"/>
			<path d="M416.3,321.59c0.29,0.11,0.61,0.23,0.96,0.36C416.91,321.82,416.59,321.7,416.3,321.59z"/>
			<path d="M415.56,321.27c0.21,0.1,0.46,0.2,0.74,0.32C416.02,321.48,415.77,321.37,415.56,321.27z"/>
			<path d="M407.83,455.03c0.45,1.439,0.93,2.87,1.43,4.279C408.76,457.9,408.28,456.47,407.83,455.03z"/>
			<path d="M406.54,450.66c0.41,1.46,0.84,2.92,1.29,4.359C407.37,453.58,406.94,452.12,406.54,450.66z"/>
			<path d="M404.84,444.03c0.351,1.47,0.72,2.95,1.101,4.42C405.55,446.98,405.19,445.5,404.84,444.03z"/>
			<path d="M403.36,437.41c0.47,2.189,0.96,4.399,1.479,6.609C404.31,441.81,403.82,439.6,403.36,437.41z"/>
			<path d="M402.04,430.92c0.42,2.13,0.86,4.29,1.32,6.48c-0.471-2.19-0.91-4.36-1.33-6.48H402.04z"/>
			<path fill="#3FA9F5" d="M386.28,397.49c9.239-0.82,11.939,14.779,15.76,33.43h-0.01l-39.07,6.85l-0.09-0.1
				C370.06,415.53,376.84,398.3,386.28,397.49z"/>
			<path d="M368.68,294.53l51.07,28.27c-0.24-0.08-0.47-0.15-0.69-0.23c-0.449-0.15-0.869-0.29-1.25-0.42
				c-0.189-0.07-0.38-0.13-0.55-0.2c-0.35-0.13-0.67-0.25-0.96-0.36c-0.28-0.12-0.53-0.22-0.74-0.32
				c-8.56-3.62-55.68-14.23-66.39-10.83c-9.24,2.83-1.8,70.66-7.26,114.74l-15.77-9.38c2.19-55.61-1.77-107.8,7.02-115.92
				c0.67-0.62,1.38-1.2,2.12-1.72c0.74-0.53,1.51-1.01,2.3-1.44c0.8-0.43,1.63-0.82,2.48-1.17c2.98-1.2,6.27-1.9,9.75-2.22
				c0.5-0.04,1.01-0.08,1.52-0.11c3.22-0.18,6.58-0.06,9.979,0.28C363.75,293.74,366.22,294.1,368.68,294.53z"/>
			<path fill="#3FA9F5" d="M332.46,274.42l36.22,20.11c-2.46-0.43-4.93-0.79-7.37-1.03c-3.399-0.34-6.76-0.47-9.979-0.28
				c-0.51,0.03-1.02,0.07-1.52,0.11c-3.48,0.31-6.77,1.01-9.75,2.22c-0.85,0.35-1.68,0.74-2.48,1.17c-0.8,0.43-1.56,0.91-2.3,1.44
				c-0.74,0.52-1.45,1.1-2.12,1.72c-8.79,8.12-4.83,60.31-7.02,115.92v0.01l-14.82-8.88v-0.01c3.55-29.58,2.25-63.25-9.72-88.24
				c-5.59-11.61-11.3-29.16-20.83-41.47l-1.94-32.52l41.05,22.76l-20.84,0.09h-0.01c-0.57-0.02-1.26,0.04-1.84,0.02
				C309.3,269.86,321.12,272.15,332.46,274.42z"/>
			<polygon points="348.52,429.17 362.46,437.43 348.52,429.18 			"/>
			<path d="M86.92,273.2C114.2,180.95,266.29,71.84,366.13,80.34l-8.15,15.35c-2.66-1.29-4.37-2.08-4.37-2.08
				s-86.55,8.7-121.34,49.89c-14.74,17.56-6.77,60.44,50.27,76.63c2.49,0.74,5.27,1.39,8.25,2.06l-11.96,22.49
				c-2.7-0.53-5.35-0.97-7.97-1.33c-0.01,0-0.01,0-0.01,0c-1.05-0.15-2.09-0.28-3.12-0.39c-1.03-0.12-2.06-0.22-3.09-0.31
				c-1.02-0.09-2.04-0.17-3.05-0.23c-14.79-0.94-28.28,0.9-40.45,5.05c-1.26,0.43-2.51,0.88-3.75,1.37
				c-15.41,5.98-28.62,15.74-39.6,28.23c-0.88,1-1.74,2.02-2.59,3.05c-0.61,0.74-1.21,1.5-1.81,2.26c-0.64,0.82-1.28,1.65-1.91,2.5
				c-3.37,4.53-6.49,9.35-9.36,14.4c-0.56,0.99-1.12,1.99-1.66,3c-1.99,3.69-3.84,7.51-5.57,11.43L86.92,273.2z"/>
			<path fill="#3FA9F5" d="M361.31,293.5c-3.399-0.34-6.76-0.46-9.979-0.28C354.55,293.03,357.91,293.16,361.31,293.5z"/>
			<path fill="#3FA9F5" d="M353.61,93.61c0,0,1.71,0.79,4.37,2.08l-67.19,126.5c-2.98-0.67-5.76-1.32-8.25-2.06
				c-57.04-16.19-65.01-59.07-50.27-76.63C267.06,102.31,353.61,93.61,353.61,93.61z"/>
			<path d="M338.97,441.19c3.71-2.95,6.81-7.101,9.55-12.011l13.94,8.25l0.41,0.24c-13.4,41.85-28.27,101.24-65.42,99.771
				c20.82-27.7,26.84-75.86,28.69-121.631l15.77,9.37C341.17,430.98,340.25,436.41,338.97,441.19z"/>
			<path fill="#3FA9F5" d="M348.52,429.18c-2.74,4.91-5.84,9.061-9.55,12.011c1.28-4.78,2.2-10.21,2.94-16.011L348.52,429.18z"/>
			<polygon points="341.91,425.18 326.14,415.81 326.14,415.8 			"/>
			<path fill="#3FA9F5" d="M349.81,293.33c-3.48,0.32-6.77,1.02-9.75,2.22C343.04,294.34,346.33,293.64,349.81,293.33z"/>
			<path fill="#3FA9F5" d="M337.58,296.72c0.8-0.43,1.63-0.82,2.48-1.17C339.21,295.9,338.38,296.29,337.58,296.72z"/>
			<path fill="#3FA9F5" d="M335.28,298.16c0.74-0.53,1.5-1.01,2.3-1.44C336.79,297.15,336.02,297.63,335.28,298.16z"/>
			<path fill="#3FA9F5" d="M332.46,274.42C655.44,338.58,672,379.97,460,552.34l-16.93-4.96
				c66.33-57.35,124.06-128.26,120.63-144.71l-68.48-37.97c5.09-7.64,5.391-16.47-2.779-26.73
				c-16.91-22.72-71.301-31.07-99.96-38.12c-6.91-1.64-15.24-3.98-23.801-5.32L332.46,274.42z"/>
			<polygon fill="#FFFFFF" points="332.17,274.23 332.14,274.21 332.17,274.22 332.19,274.23 			"/>
			<polygon fill="#FFFFFF" points="332.17,274.23 299.04,267.54 332.14,274.21 			"/>
			<polygon points="311.32,406.92 311.32,406.93 287.81,392.96 			"/>
			<path fill="#3FA9F5" d="M216.4,596.58c27.06,17.02,56.17,27.1,85.5,27.99c37.07,1.1,91.47-34.21,141.17-77.19l16.93,4.96
				c-16.69,13.561-34.68,27.88-54.17,43.16c231.91-125.38,224.14-92.6,124.76,40.83c-11.04,6.22-22.43,11.689-34.09,16.61
				c-1.07-34.49-38.72-7.54-70.57-1.69c-2.529,0.47-5.06,0.91-7.59,1.33c-2.37,0.38-4.75,0.74-7.14,1.08
				c-1.58,0.229-3.17,0.439-4.771,0.64c-2.26,0.28-4.52,0.54-6.779,0.78c-0.261,0.03-0.53,0.06-0.801,0.09
				c-2.43,0.25-4.869,0.47-7.31,0.67c-1.37,0.11-2.73,0.21-4.1,0.311c-16.04,1.1-32.19,1.05-48.32-0.181
				c-15.97-1.22-31.92-3.6-47.68-7.149c-0.93-0.21-1.86-0.42-2.78-0.641c-2.78-0.66-5.55-1.35-8.32-2.069
				c-0.92-0.24-1.85-0.49-2.77-0.74c-1.84-0.5-3.68-1.021-5.51-1.55c-1.83-0.54-3.66-1.09-5.49-1.65c-1.83-0.57-3.66-1.15-5.48-1.75
				c-1.82-0.6-3.63-1.22-5.45-1.85c-1.81-0.641-3.62-1.29-5.42-1.95c0,0,0,0-0.01,0c-1.81-0.67-3.6-1.351-5.4-2.05
				c-1.79-0.7-3.58-1.42-5.37-2.15c-1.79-0.74-3.57-1.49-5.35-2.25c-15.11-6.53-29.86-14.26-44.12-23.24
				C45.64,516.02,7.03,332.39,103.71,196.76C152,128.85,224.96,85.88,303.92,71.23c39.49-7.38,88.311-6.81,118.83-2.24
				c24.16,3.69,42.53,4.69,48.34-1.64c19.2,6.32,37.93,14.35,56.101,24.18c45.149,45.89,23.96,53.81-114.221-11.99
				c238.75,153.44,252.12,185.96-93.09,187.91l-41.05-22.76c263.7,26.45,408.26,8,87.3-164.35
				C266.29,71.84,114.2,180.95,86.92,273.2C48.8,401.85,101.42,536.54,216.12,596.39C216.21,596.49,216.31,596.58,216.4,596.58z"/>
			<path d="M301.6,318.68c11.97,24.99,13.27,58.66,9.72,88.24l-23.51-13.96l-3.03-49.89l-4.01-65.86
				C290.3,289.52,296.01,307.07,301.6,318.68z"/>
			<path fill="#3FA9F5" d="M426.06,426.77l137.641-24.1C453.9,521.84,365.98,571.96,299.14,579.89l-2.56-42.39l0.87-0.06
				c37.15,1.47,52.02-57.921,65.42-99.771l0.09,0.1l39.07-6.85c0.42,2.12,0.859,4.29,1.33,6.48c0,0-0.011,0.01,0,0.01
				c0.46,2.189,0.949,4.399,1.479,6.609c0,0-0.01,0.011,0,0.011c0.351,1.47,0.71,2.95,1.101,4.42c0.189,0.729,0.39,1.47,0.6,2.21
				c0.4,1.46,0.83,2.92,1.29,4.359c0,0-0.01,0,0,0.011c0.45,1.439,0.93,2.87,1.43,4.279c3.79,10.591,9.16,20.07,17.521,26
				c0.56,0.4,1.13,0.78,1.71,1.141c1.75,1.09,3.63,2.03,5.64,2.8C436,477.66,427.68,449.07,426.06,426.77z"/>
			<path fill="#FFFFFF" d="M332.46,274.42c-11.34-2.27-23.16-4.56-35.27-6.86c0.58,0.02,1.27-0.04,1.84-0.02h0.01l33.13,6.69h0.02
				L332.46,274.42z"/>
			<path fill="#3FA9F5" d="M296.58,537.5l-3.86-63.41c8.52-17.07,13.99-39.82,15.91-50.32c1.02-5.43,1.95-11.029,2.69-16.84
				l14.82,8.88c-1.85,45.771-7.87,93.931-28.69,121.631L296.58,537.5z"/>
			<path d="M308.63,423.77c-1.92,10.5-7.39,33.25-15.91,50.32l-4.91-81.13l23.51,13.97C310.58,412.74,309.65,418.34,308.63,423.77z"
				/>
			<path d="M231.48,269.7c24.14-13.17,38.94-5.93,49.29,7.51l4.01,65.86l-2.96,0.18c-1.61-26.92-14.67-59.42-41.51-45.58
				c-2.49,1.27-4.98,2.84-7.44,4.72c-0.82,0.63-1.64,1.29-2.45,1.98c-9.74,8.31-18.89,21.44-25.78,39.01l-23.32-13.86
				C190.66,307.1,205.91,286.83,231.48,269.7z"/>
			<path fill="#3FA9F5" d="M280.77,277.21c-10.35-13.44-25.15-20.68-49.29-7.51c-25.57,17.13-40.82,37.4-50.16,59.82l-26.43-15.81
				c1.73-3.92,3.58-7.74,5.57-11.43c0.54-1.01,1.1-2.01,1.66-3c2.87-5.05,5.99-9.87,9.36-14.4c0.62-0.84,1.26-1.68,1.91-2.5
				c0.6-0.76,1.2-1.52,1.81-2.26c0.85-1.04,1.71-2.05,2.59-3.05c10.98-12.49,24.19-22.25,39.6-28.23c1.24-0.48,2.49-0.94,3.75-1.37
				c12.17-4.15,25.66-5.99,40.45-5.05c1.01,0.06,2.02,0.14,3.05,0.23c1.02,0.09,2.05,0.2,3.09,0.31c1.03,0.12,2.07,0.25,3.12,0.39
				c0,0,0,0,0.01,0c2.62,0.37,5.28,0.81,7.97,1.34L280.77,277.21z"/>
			<path d="M301.9,624.57c-31.37-5.07-60.02-14.681-85.5-27.99c-0.09,0-0.19-0.09-0.28-0.19C122.51,537.55,53.49,396.75,86.92,273.2
				l67.97,40.51c-45.94,104.18-0.15,283.45,144.25,266.18L301.9,624.57z"/>
			<path fill="#3FA9F5" d="M278.83,244.68v0.01c-2.69-0.53-5.35-0.97-7.97-1.34C273.48,243.71,276.13,244.15,278.83,244.68z"/>
			<path fill="#3FA9F5" d="M299.14,579.89c-144.4,17.271-190.19-162-144.25-266.18l26.43,15.81
				c-11.61,27.79-14.07,58.96-15.63,91.89c-1.72,36.21,9.31,93.149,32.46,101.99c35.84,13.63,12.7-121.631,46.41-125.4
				c32.32-1-4.92,103.71,27.92,97.53c7.82-1.511,14.71-10.351,20.24-21.44l3.86,63.41L299.14,579.89z"/>
			<path fill="#3FA9F5" d="M267.73,242.96c1.03,0.11,2.07,0.24,3.12,0.39C269.8,243.21,268.76,243.08,267.73,242.96z"/>
			<path fill="#3FA9F5" d="M264.64,242.65c1.03,0.09,2.06,0.19,3.09,0.31C266.69,242.85,265.66,242.74,264.64,242.65z"/>
			<path d="M287.81,392.96l-22.56-13.46c4.48-0.56,8.56-2.77,12.3-8.45c3.48-5.3,4.97-16.02,4.27-27.8l2.96-0.18L287.81,392.96z"/>
			<path fill="#3FA9F5" d="M261.59,242.42c1.01,0.06,2.03,0.14,3.05,0.23C263.61,242.56,262.6,242.48,261.59,242.42z"/>
			<path d="M193,441.26c31.43-80.88,54.59-59.09,72.25-61.76l22.56,13.46l4.91,81.13c-5.53,11.09-12.42,19.93-20.24,21.44
				c-32.84,6.18,4.4-98.53-27.92-97.53c-33.71,3.77-10.57,139.03-46.41,125.4c-23.15-8.841-34.18-65.78-32.46-101.99
				c1.56-32.93,4.02-64.1,15.63-91.89l23.32,13.86C195.03,367.61,189.78,400.49,193,441.26z"/>
			<path fill="#3FA9F5" d="M301.9,624.57c-29.33-0.891-58.44-10.971-85.5-27.99C241.88,609.89,270.53,619.5,301.9,624.57z"/>
			<path fill="#3FA9F5" d="M240.31,297.67c26.84-13.84,39.9,18.66,41.51,45.58c0.7,11.78-0.79,22.5-4.27,27.8
				c-3.74,5.681-7.82,7.891-12.3,8.45l-60.61-36.12c6.89-17.57,16.04-30.7,25.78-39.01c0.81-0.69,1.63-1.35,2.45-1.98
				C235.33,300.51,237.82,298.94,240.31,297.67z"/>
			<path fill="#3FA9F5" d="M265.25,379.5c-17.66,2.67-40.82-19.12-72.25,61.76c-3.22-40.77,2.03-73.649,11.64-97.88L265.25,379.5z"
				/>
			<path d="M86.92,273.2c-33.43,123.55,35.59,264.35,129.2,323.189C101.42,536.54,48.8,401.85,86.92,273.2z"/>
		</g>
		<g>
		</g>
	</g>
</g>
</svg>
