<?xml version="1.0" encoding="utf-8"?>
<!-- Generator: Adobe Illustrator 16.0.0, SVG Export Plug-In . SVG Version: 6.00 Build 0)  -->
<!DOCTYPE svg PUBLIC "-//W3C//DTD SVG 1.1//EN" "http://www.w3.org/Graphics/SVG/1.1/DTD/svg11.dtd">
<svg version="1.1" id="Layer_1" xmlns="http://www.w3.org/2000/svg" xmlns:xlink="http://www.w3.org/1999/xlink" x="0px" y="0px"
	 width="256px" height="256px" viewBox="0 0 256 256" enable-background="new 0 0 256 256" xml:space="preserve">
<rect fill="#B3B3B3" width="256" height="256"/>
<g>
	<defs>
		<circle id="SVGID_1_" cx="128" cy="128.333" r="108.667"/>
	</defs>
	<clipPath id="SVGID_2_">
		<use xlink:href="#SVGID_1_"  overflow="visible"/>
	</clipPath>
	<g clip-path="url(#SVGID_2_)">
		<g id="XMLID_1_">
			<g>
				<path fill="#41B3F5" d="M250.02,126.76c0,5.01-0.329,10.08-1.02,15.2c-13.67-13.55-27.32-27.11-41.01-40.64
					c-1.561-1.54-3.13-3.08-4.69-4.62c-4.71-4.6-9.45-9.18-14.17-13.78c-2.04-3.98-5.77-6.37-8.81-9.4c-5.36-5.37-6-5.44-11.17-0.19
					c-2.83,2.87-5.62,3.64-9.37,1.92c-3.771-1.73-7.67-3.27-11.66-4.41c-5.91-1.68-9.24-4.77-8.17-11.42
					c0.56-3.48-1.48-4.74-4.78-4.62c-3.33,0.13-6.67,0.03-10,0.03c-7.52,0-7.74,0.02-7.62,7.42c0.07,4.2-1.68,6.38-5.48,7.74
					c-5,1.79-10.04,3.64-14.73,6.1c-5.24,2.74-9.34,2.33-13.09-2.38c-2.34-2.93-5.01-2.81-7.66-0.15c-2.23,2.24-4.58,4.36-6.86,6.55
					c-5.01,4.82-5.16,5.5,0.04,10.16c3.49,3.13,4.46,6.16,2.28,10.5c-2.23,4.44-3.97,9.14-5.78,13.79
					c-1.04,2.65-2.93,3.83-5.62,4.24c-3.04,0.47-6.86-1.48-9,1.34c-2.05,2.71-0.52,6.47-0.81,9.75c-0.07,0.83-0.01,1.66-0.01,2.5
					c0,7.71,0.01,7.9,7.63,7.71c4.52-0.119,7.12,1.601,8.65,5.811c1.46,4.05,3.06,8.13,5.22,11.84c3.4,5.83,3.79,10.74-2.39,14.95
					c-2.33,1.59-2.61,3.99-0.5,5.97c4.1,3.87,7.81,8.19,12.56,11.34c13.94,14.08,27.89,28.141,41.8,42.24
					c5.49,5.56,10.891,11.21,16.33,16.82c-1.11,0.25-2.22,0.64-3.35,0.72c-2.83,0.21-5.65,0.31-8.45,0.31
					c-55.12,0-105.31-39.739-117.37-94.25c-0.95-4.29-0.8-8.84-2.96-12.85c0-9.33,0-18.67,0-28c1.57-0.77,0.96-2.32,1.19-3.52
					c9.86-52.01,40.09-85.42,91.05-100.03c5.2-1.49,10.73-1.29,15.76-3.45c8.67,0,17.33,0,26,0c0.48,1.25,1.63,0.87,2.54,1.01
					c42.3,6.45,73.52,28.62,92.95,66.67C245.75,91.86,250.02,108.96,250.02,126.76z"/>
				<path fill="#3186B8" d="M249,141.96c-1.49,20.96-9.06,39.73-21.1,56.69c-19.86,27.979-47.11,44.34-80.811,50.119
					c-2.27,0.391-4.64,0.211-6.96,0.301c-5.439-5.61-10.84-11.261-16.33-16.82c-13.91-14.1-27.86-28.16-41.8-42.24
					c3.14-0.34,4.84-2.89,6.77-4.819c2.78-2.771,5.48-3.12,9-1.57c4.71,2.06,9.56,3.87,14.45,5.46c3.95,1.29,5.47,3.59,5.35,7.77
					c-0.19,7.381,0.26,7.641,7.5,7.66c1.33,0,2.67,0.07,4-0.02c3.13-0.2,6.59,1.01,9.31-0.78c3.23-2.13,1.16-5.85,1.601-8.84
					c0.35-2.34,1.279-4.05,3.56-4.97c6.77-2.73,13.58-5.41,20.28-8.32c3.649-1.59,5.59,0.75,7.79,2.74
					c5.22,4.72,5.31,4.72,10.46-0.23c0.84-0.81,1.729-1.56,2.58-2.359c7.43-6.98,7.47-7.011,0.83-14.79
					c-1.75-2.061-1.91-4.021-0.851-6.421c2.09-4.699,4.34-9.369,5.92-14.26c1.561-4.83,4.5-6.38,9.351-6.17
					c6.17,0.28,6.54-0.32,6.6-6.39c0.02-1.5,0.01-3,0.01-4.5c0-9.43,0-9.46-9.18-10.38c-2.92-0.29-4.88-1.54-6.061-4.36
					c-2.52-5.97-5.09-11.93-7.949-17.75c-1.71-3.49-0.92-5.98,1.859-8.3c1.78-1.47,3.811-2.81,3.95-5.48
					c4.72,4.59,9.46,9.17,14.17,13.77c1.561,1.54,3.13,3.08,4.69,4.62C221.68,114.85,235.33,128.41,249,141.96z"/>
				<path fill="#FCFCFD" d="M206.51,129.2c0,1.5,0.01,3-0.01,4.5c-0.06,6.069-0.43,6.67-6.6,6.39c-4.851-0.21-7.79,1.34-9.351,6.17
					c-1.58,4.891-3.83,9.561-5.92,14.26c-1.06,2.4-0.899,4.36,0.851,6.421c6.64,7.779,6.6,7.81-0.83,14.79
					c-0.851,0.8-1.74,1.55-2.58,2.359c-5.15,4.95-5.24,4.95-10.46,0.23c-2.2-1.99-4.141-4.33-7.79-2.74
					c-6.7,2.91-13.511,5.59-20.28,8.32c-2.28,0.92-3.21,2.63-3.56,4.97c-0.44,2.99,1.63,6.71-1.601,8.84
					c-2.72,1.79-6.18,0.58-9.31,0.78c-1.33,0.09-2.67,0.02-4,0.02c-7.24-0.02-7.69-0.279-7.5-7.66c0.12-4.18-1.4-6.479-5.35-7.77
					c-4.89-1.59-9.74-3.4-14.45-5.46c-3.52-1.55-6.22-1.2-9,1.57c-1.93,1.93-3.63,4.479-6.77,4.819
					c-4.75-3.149-8.46-7.47-12.56-11.34c-2.11-1.979-1.83-4.38,0.5-5.97c6.18-4.21,5.79-9.12,2.39-14.95
					c-2.16-3.71-3.76-7.79-5.22-11.84c-1.53-4.21-4.13-5.93-8.65-5.811c-7.62,0.19-7.63,0-7.63-7.71c0-0.84-0.06-1.67,0.01-2.5
					c0.29-3.28-1.24-7.04,0.81-9.75c2.14-2.82,5.96-0.87,9-1.34c2.69-0.41,4.58-1.59,5.62-4.24c1.81-4.65,3.55-9.35,5.78-13.79
					c2.18-4.34,1.21-7.37-2.28-10.5c-5.2-4.66-5.05-5.34-0.04-10.16c2.28-2.19,4.63-4.31,6.86-6.55c2.65-2.66,5.32-2.78,7.66,0.15
					c3.75,4.71,7.85,5.12,13.09,2.38c4.69-2.46,9.73-4.31,14.73-6.1c3.8-1.36,5.55-3.54,5.48-7.74c-0.12-7.4,0.1-7.42,7.62-7.42
					c3.33,0,6.67,0.1,10-0.03c3.3-0.12,5.34,1.14,4.78,4.62c-1.07,6.65,2.26,9.74,8.17,11.42c3.99,1.14,7.89,2.68,11.66,4.41
					c3.75,1.72,6.54,0.95,9.37-1.92c5.17-5.25,5.81-5.18,11.17,0.19c3.04,3.03,6.77,5.42,8.81,9.4v0.01
					c-0.14,2.67-2.17,4.01-3.95,5.48c-2.779,2.32-3.569,4.81-1.859,8.3c2.859,5.82,5.43,11.78,7.949,17.75
					c1.181,2.82,3.141,4.07,6.061,4.36C206.51,119.74,206.51,119.77,206.51,129.2z M128.79,153.99
					c13.78-0.12,25.14-11.28,25.04-24.601c-0.09-13.209-11.83-24.37-25.48-24.22c-13.7,0.15-25.36,11.57-25.18,24.64
					C103.36,143.02,115.12,154.12,128.79,153.99z"/>
				<path fill="#41B3F5" d="M153.83,129.39c0.1,13.32-11.26,24.48-25.04,24.601c-13.67,0.13-25.43-10.971-25.62-24.181
					c-0.18-13.069,11.48-24.49,25.18-24.64C142,105.02,153.74,116.18,153.83,129.39z"/>
			</g>
			<g>
			</g>
		</g>
	</g>
</g>
</svg>
